<?xml version="1.0" encoding="UTF-8"?>
<svg width="128" height="128" viewBox="0 0 128 128" xmlns="http://www.w3.org/2000/svg">
  <defs>
    <linearGradient id="gradient" x1="0%" y1="0%" x2="100%" y2="100%">
      <stop offset="0%" style="stop-color:#ff6b35;stop-opacity:1" />
      <stop offset="100%" style="stop-color:#f7931e;stop-opacity:1" />
    </linearGradient>
  </defs>
  
  <!-- Background circle with gradient -->
  <circle cx="64" cy="64" r="60" fill="url(#gradient)" stroke="#333" stroke-width="2"/>
  
  <!-- Main bracket structure [#] -->
  <!-- Left bracket [ -->
  <rect x="28" y="35" width="6" height="58" fill="#ffffff" rx="1"/>
  <rect x="28" y="35" width="16" height="6" fill="#ffffff" rx="1"/>
  <rect x="28" y="87" width="16" height="6" fill="#ffffff" rx="1"/>
  
  <!-- Right bracket ] -->
  <rect x="94" y="35" width="6" height="58" fill="#ffffff" rx="1"/>
  <rect x="84" y="35" width="16" height="6" fill="#ffffff" rx="1"/>
  <rect x="84" y="87" width="16" height="6" fill="#ffffff" rx="1"/>
  
  <!-- Hash symbol # in the center -->
  <!-- Horizontal lines -->
  <rect x="50" y="50" width="28" height="4" fill="#ffffff" rx="1"/>
  <rect x="50" y="70" width="28" height="4" fill="#ffffff" rx="1"/>
  
  <!-- Vertical lines -->
  <rect x="58" y="42" width="4" height="28" fill="#ffffff" rx="1"/>
  <rect x="66" y="58" width="4" height="28" fill="#ffffff" rx="1"/>
  
  <!-- Small circuit board elements for embedded theme -->
  <circle cx="20" cy="20" r="3" fill="#ffffff" opacity="0.7"/>
  <circle cx="108" cy="20" r="3" fill="#ffffff" opacity="0.7"/>
  <circle cx="20" cy="108" r="3" fill="#ffffff" opacity="0.7"/>
  <circle cx="108" cy="108" r="3" fill="#ffffff" opacity="0.7"/>
  
  <!-- Connection lines -->
  <line x1="20" y1="20" x2="30" y2="30" stroke="#ffffff" stroke-width="1" opacity="0.5"/>
  <line x1="108" y1="20" x2="98" y2="30" stroke="#ffffff" stroke-width="1" opacity="0.5"/>
  <line x1="20" y1="108" x2="30" y2="98" stroke="#ffffff" stroke-width="1" opacity="0.5"/>
  <line x1="108" y1="108" x2="98" y2="98" stroke="#ffffff" stroke-width="1" opacity="0.5"/>
</svg>